{
  "asset": {
    "generator": "Khronos glTF Blender I/O v3.4.50",
    "version": "2.0"
  },
  "buffers": [
    {
      "byteLength": 0
    },
    {
      "uri": "Scene.bin",
      "byteLength": 304944
    }
  ],
  "bufferViews": [
    {
      "buffer": 1,
      "byteOffset": 0,
      "byteLength": 40464,
      "target": 34962,
      "byteStride": 12
    },
    {
      "buffer": 1,
      "byteOffset": 40464,
      "byteLength": 26976,
      "target": 34962,
      "byteStride": 8
    },
    {
      "buffer": 1,
      "byteOffset": 67440,
      "byteLength": 40464,
      "target": 34962,
      "byteStride": 12
    },
    {
      "buffer": 1,
      "byteOffset": 107904,
      "byteLength": 6768,
      "target": 34963
    },
    {
      "buffer": 1,
      "byteOffset": 114672,
      "byteLength": 38640,
      "target": 34962,
      "byteStride": 12
    },
    {
      "buffer": 1,
      "byteOffset": 153312,
      "byteLength": 25760,
      "target": 34962,
      "byteStride": 8
    },
    {
      "buffer": 1,
      "byteOffset": 179072,
      "byteLength": 38640,
      "target": 34962,
      "byteStride": 12
    },
    {
      "buffer": 1,
      "byteOffset": 217712,
      "byteLength": 7488,
      "target": 34963
    },
    {
      "buffer": 1,
      "byteOffset": 225200,
      "byteLength": 1152,
      "target": 34962,
      "byteStride": 12
    },
    {
      "buffer": 1,
      "byteOffset": 226352,
      "byteLength": 1152,
      "target": 34962,
      "byteStride": 12
    },
    {
      "buffer": 1,
      "byteOffset": 227504,
      "byteLength": 288,
      "target": 34963
    },
    {
      "buffer": 1,
      "byteOffset": 227792,
      "byteLength": 1176,
      "target": 34962,
      "byteStride": 12
    },
    {
      "buffer": 1,
      "byteOffset": 228968,
      "byteLength": 784,
      "target": 34962,
      "byteStride": 8
    },
    {
      "buffer": 1,
      "byteOffset": 229752,
      "byteLength": 1176,
      "target": 34962,
      "byteStride": 12
    },
    {
      "buffer": 1,
      "byteOffset": 230928,
      "byteLength": 216,
      "target": 34963
    },
    {
      "buffer": 1,
      "byteOffset": 231144,
      "byteLength": 1296,
      "target": 34962,
      "byteStride": 12
    },
    {
      "buffer": 1,
      "byteOffset": 232440,
      "byteLength": 864,
      "target": 34962,
      "byteStride": 8
    },
    {
      "buffer": 1,
      "byteOffset": 233304,
      "byteLength": 1296,
      "target": 34962,
      "byteStride": 12
    },
    {
      "buffer": 1,
      "byteOffset": 234600,
      "byteLength": 252,
      "target": 34963
    },
    {
      "buffer": 1,
      "byteOffset": 234852,
      "byteLength": 15840,
      "target": 34962,
      "byteStride": 12
    },
    {
      "buffer": 1,
      "byteOffset": 250692,
      "byteLength": 10560,
      "target": 34962,
      "byteStride": 8
    },
    {
      "buffer": 1,
      "byteOffset": 261252,
      "byteLength": 15840,
      "target": 34962,
      "byteStride": 12
    },
    {
      "buffer": 1,
      "byteOffset": 277092,
      "byteLength": 2814,
      "target": 34963
    },
    {
      "buffer": 1,
      "byteOffset": 279908,
      "byteLength": 8760,
      "target": 34962,
      "byteStride": 12
    },
    {
      "buffer": 1,
      "byteOffset": 288668,
      "byteLength": 5840,
      "target": 34962,
      "byteStride": 8
    },
    {
      "buffer": 1,
      "byteOffset": 294508,
      "byteLength": 8760,
      "target": 34962,
      "byteStride": 12
    },
    {
      "buffer": 1,
      "byteOffset": 303268,
      "byteLength": 1674,
      "target": 34963
    }
  ],
  "accessors": [
    {
      "bufferView": 0,
      "byteOffset": 0,
      "componentType": 5126,
      "normalized": false,
      "count": 3372,
      "max": [
        14.303890228271484,
        0.6487938165664673,
        89.69438171386719
      ],
      "min": [
        -32.19664001464844,
        -0.6830472946166992,
        -3.065326690673828
      ],
      "type": "VEC3"
    },
    {
      "bufferView": 1,
      "byteOffset": 0,
      "componentType": 5126,
      "normalized": false,
      "count": 3372,
      "max": [
        13.18347454071045,
        13.44904899597168
      ],
      "min": [
        -12.18347454071045,
        -12.470848083496094
      ],
      "type": "VEC2"
    },
    {
      "bufferView": 2,
      "byteOffset": 0,
      "componentType": 5126,
      "normalized": false,
      "count": 3372,
      "max": [
        1,
        1,
        0.9999987483024597
      ],
      "min": [
        -1,
        -1,
        -1
      ],
      "type": "VEC3"
    },
    {
      "bufferView": 3,
      "byteOffset": 0,
      "componentType": 5123,
      "normalized": false,
      "count": 3384,
      "max": [
        3371
      ],
      "min": [
        0
      ],
      "type": "SCALAR"
    },
    {
      "bufferView": 4,
      "byteOffset": 0,
      "componentType": 5126,
      "normalized": false,
      "count": 3220,
      "max": [
        6.216376781463623,
        1.4428248405456543,
        1.731545329093933
      ],
      "min": [
        -0.17757558822631836,
        1.0371835231781006,
        -1.7343326807022095
      ],
      "type": "VEC3"
    },
    {
      "bufferView": 5,
      "byteOffset": 0,
      "componentType": 5126,
      "normalized": false,
      "count": 3220,
      "max": [
        0,
        1
      ],
      "min": [
        0,
        1
      ],
      "type": "VEC2"
    },
    {
      "bufferView": 6,
      "byteOffset": 0,
      "componentType": 5126,
      "normalized": false,
      "count": 3220,
      "max": [
        1,
        1,
        1
      ],
      "min": [
        -1,
        -1,
        -1
      ],
      "type": "VEC3"
    },
    {
      "bufferView": 7,
      "byteOffset": 0,
      "componentType": 5123,
      "normalized": false,
      "count": 3744,
      "max": [
        3219
      ],
      "min": [
        0
      ],
      "type": "SCALAR"
    },
    {
      "bufferView": 8,
      "byteOffset": 0,
      "componentType": 5126,
      "normalized": false,
      "count": 96,
      "max": [
        0.8654453754425049,
        0.5509070754051208,
        2.663088798522949
      ],
      "min": [
        -4.974143981933594,
        -0.5509070754051208,
        -0.17108912765979767
      ],
      "type": "VEC3"
    },
    {
      "bufferView": 9,
      "byteOffset": 0,
      "componentType": 5126,
      "normalized": false,
      "count": 96,
      "max": [
        1,
        1,
        1
      ],
      "min": [
        -1,
        -1,
        -1
      ],
      "type": "VEC3"
    },
    {
      "bufferView": 10,
      "byteOffset": 0,
      "componentType": 5123,
      "normalized": false,
      "count": 144,
      "max": [
        95
      ],
      "min": [
        0
      ],
      "type": "SCALAR"
    },
    {
      "bufferView": 11,
      "byteOffset": 0,
      "componentType": 5126,
      "normalized": false,
      "count": 98,
      "max": [
        3.3098809719085693,
        1.0246976613998413,
        1.7825921773910522
      ],
      "min": [
        -3.3098819255828857,
        1.0246976613998413,
        -1.7824589014053345
      ],
      "type": "VEC3"
    },
    {
      "bufferView": 12,
      "byteOffset": 0,
      "componentType": 5126,
      "normalized": false,
      "count": 98,
      "max": [
        3.745462417602539,
        1
      ],
      "min": [
        0,
        0.3463894724845886
      ],
      "type": "VEC2"
    },
    {
      "bufferView": 13,
      "byteOffset": 0,
      "componentType": 5126,
      "normalized": false,
      "count": 98,
      "max": [
        0.0000050456378630769905,
        1,
        0
      ],
      "min": [
        -0.0000050456378630769905,
        -1,
        0
      ],
      "type": "VEC3"
    },
    {
      "bufferView": 14,
      "byteOffset": 0,
      "componentType": 5123,
      "normalized": false,
      "count": 108,
      "max": [
        97
      ],
      "min": [
        0
      ],
      "type": "SCALAR"
    },
    {
      "bufferView": 15,
      "byteOffset": 0,
      "componentType": 5126,
      "normalized": false,
      "count": 108,
      "max": [
        1.9599159955978394,
        1.351885199546814,
        1.5934242010116577
      ],
      "min": [
        1.4644149541854858,
        1.3518847227096558,
        -1.6069227457046509
      ],
      "type": "VEC3"
    },
    {
      "bufferView": 16,
      "byteOffset": 0,
      "componentType": 5126,
      "normalized": false,
      "count": 108,
      "max": [
        0,
        1
      ],
      "min": [
        0,
        1
      ],
      "type": "VEC2"
    },
    {
      "bufferView": 17,
      "byteOffset": 0,
      "componentType": 5126,
      "normalized": false,
      "count": 108,
      "max": [
        0.00015203662042040378,
        1,
        8.935097639550804e-7
      ],
      "min": [
        -0.000054449821618618444,
        0.9999999403953552,
        0
      ],
      "type": "VEC3"
    },
    {
      "bufferView": 18,
      "byteOffset": 0,
      "componentType": 5123,
      "normalized": false,
      "count": 126,
      "max": [
        107
      ],
      "min": [
        0
      ],
      "type": "SCALAR"
    },
    {
      "bufferView": 19,
      "byteOffset": 0,
      "componentType": 5126,
      "normalized": false,
      "count": 1320,
      "max": [
        3.0859620571136475,
        1.3483150005340576,
        1.5429812669754028
      ],
      "min": [
        -3.0859620571136475,
        1.2619577646255493,
        -1.5429807901382446
      ],
      "type": "VEC3"
    },
    {
      "bufferView": 20,
      "byteOffset": 0,
      "componentType": 5126,
      "normalized": false,
      "count": 1320,
      "max": [
        11.062124252319336,
        18.060611724853516
      ],
      "min": [
        -10.062124252319336,
        -17.756141662597656
      ],
      "type": "VEC2"
    },
    {
      "bufferView": 21,
      "byteOffset": 0,
      "componentType": 5126,
      "normalized": false,
      "count": 1320,
      "max": [
        1,
        1,
        1
      ],
      "min": [
        -1,
        -0.9526755809783936,
        -1
      ],
      "type": "VEC3"
    },
    {
      "bufferView": 22,
      "byteOffset": 0,
      "componentType": 5123,
      "normalized": false,
      "count": 1407,
      "max": [
        1319
      ],
      "min": [
        0
      ],
      "type": "SCALAR"
    },
    {
      "bufferView": 23,
      "byteOffset": 0,
      "componentType": 5126,
      "normalized": false,
      "count": 730,
      "max": [
        3.3920059204101562,
        1.426896333694458,
        1.8510572910308838
      ],
      "min": [
        -3.3920929431915283,
        1.0075629949569702,
        -1.8511477708816528
      ],
      "type": "VEC3"
    },
    {
      "bufferView": 24,
      "byteOffset": 0,
      "componentType": 5126,
      "normalized": false,
      "count": 730,
      "max": [
        3.436500310897827,
        3.6257500648498535
      ],
      "min": [
        -2.436500310897827,
        -2.703423023223877
      ],
      "type": "VEC2"
    },
    {
      "bufferView": 25,
      "byteOffset": 0,
      "componentType": 5126,
      "normalized": false,
      "count": 730,
      "max": [
        1,
        1,
        0.9999955296516418
      ],
      "min": [
        -0.9999978542327881,
        -0.2676212191581726,
        -0.9999998807907104
      ],
      "type": "VEC3"
    },
    {
      "bufferView": 26,
      "byteOffset": 0,
      "componentType": 5123,
      "normalized": false,
      "count": 837,
      "max": [
        729
      ],
      "min": [
        0
      ],
      "type": "SCALAR"
    }
  ],
  "scene": 0,
  "scenes": [
    {
      "nodes": [
        0,
        1,
        2,
        3,
        4,
        5,
        6
      ],
      "name": "Scene"
    }
  ],
  "nodes": [
    {
      "name": "edges",
      "matrix": [
        0.0000016194020417970023,
        0.00000561953493161127,
        0.06650002300739288,
        0,
        0.00005308186882757582,
        0.0664999932050705,
        -0.000005620832325803349,
        0,
        -0.06650000065565109,
        0.00005308200707077049,
        0.0000016149159591805073,
        0,
        2.8752405643463135,
        1.386897325515747,
        0.5952661037445068,
        1
      ],
      "mesh": 0
    },
    {
      "name": "holes",
      "matrix": [
        1,
        0,
        0,
        0,
        0,
        1,
        0,
        0,
        0,
        0,
        1,
        0,
        -3.019275188446045,
        0,
        0,
        1
      ],
      "mesh": 1
    },
    {
      "name": "legs",
      "matrix": [
        1,
        0,
        0,
        0,
        0,
        1,
        0,
        0,
        0,
        0,
        1,
        0,
        2.0543484687805176,
        0.45560866594314575,
        -1.2459995746612549,
        1
      ],
      "mesh": 2
    },
    {
      "name": "base",
      "matrix": [
        1,
        0,
        0,
        0,
        0,
        1,
        0,
        0,
        0,
        0,
        1,
        0,
        0,
        0.012482176534831524,
        0,
        1
      ],
      "mesh": 3
    },
    {
      "name": "lines",
      "mesh": 4
    },
    {
      "name": "overlay",
      "mesh": 5
    },
    {
      "name": "border",
      "mesh": 6
    }
  ],
  "meshes": [
    {
      "primitives": [
        {
          "material": 0,
          "mode": 4,
          "attributes": {
            "POSITION": 0,
            "TEXCOORD_0": 1,
            "NORMAL": 2
          },
          "indices": 3
        }
      ]
    },
    {
      "primitives": [
        {
          "material": 1,
          "mode": 4,
          "attributes": {
            "POSITION": 4,
            "TEXCOORD_0": 5,
            "NORMAL": 6
          },
          "indices": 7
        }
      ]
    },
    {
      "primitives": [
        {
          "material": 1,
          "mode": 4,
          "attributes": {
            "POSITION": 8,
            "NORMAL": 9
          },
          "indices": 10
        }
      ]
    },
    {
      "primitives": [
        {
          "material": 1,
          "mode": 4,
          "attributes": {
            "POSITION": 11,
            "TEXCOORD_0": 12,
            "NORMAL": 13
          },
          "indices": 14
        }
      ]
    },
    {
      "primitives": [
        {
          "material": 1,
          "mode": 4,
          "attributes": {
            "POSITION": 15,
            "TEXCOORD_0": 16,
            "NORMAL": 17
          },
          "indices": 18
        }
      ]
    },
    {
      "primitives": [
        {
          "material": 2,
          "mode": 4,
          "attributes": {
            "POSITION": 19,
            "TEXCOORD_0": 20,
            "NORMAL": 21
          },
          "indices": 22
        }
      ]
    },
    {
      "primitives": [
        {
          "material": 3,
          "mode": 4,
          "attributes": {
            "POSITION": 23,
            "TEXCOORD_0": 24,
            "NORMAL": 25
          },
          "indices": 26
        }
      ]
    }
  ],
  "materials": [
    {
      "pbrMetallicRoughness": {
        "baseColorFactor": [
          0.10196078431372549,
          0.27450980392156865,
          0,
          1
        ],
        "metallicFactor": 0,
        "roughnessFactor": 0.5
      },
      "emissiveFactor": [
        0,
        0,
        0
      ],
      "alphaMode": "OPAQUE",
      "doubleSided": false
    },
    {
      "pbrMetallicRoughness": {
        "baseColorFactor": [
          0.058823529411764705,
          0.058823529411764705,
          0.058823529411764705,
          1
        ],
        "metallicFactor": 0,
        "roughnessFactor": 0.5
      },
      "emissiveFactor": [
        0,
        0,
        0
      ],
      "alphaMode": "OPAQUE",
      "doubleSided": true
    },
    {
      "pbrMetallicRoughness": {
        "baseColorFactor": [
          0.10196078431372549,
          0.27450980392156865,
          0,
          1
        ],
        "metallicFactor": 0,
        "roughnessFactor": 0.5
      },
      "emissiveFactor": [
        0,
        0,
        0
      ],
      "alphaMode": "OPAQUE",
      "doubleSided": true
    },
    {
      "pbrMetallicRoughness": {
        "baseColorFactor": [
          0,
          0,
          0,
          1
        ],
        "metallicFactor": 0,
        "roughnessFactor": 0.5
      },
      "emissiveFactor": [
        0,
        0,
        0
      ],
      "alphaMode": "OPAQUE",
      "doubleSided": true
    }
  ]
}